<svg width="661.01mm" height="488.47mm" viewBox="0 0 661.01 488.47" xmlns="http://www.w3.org/2000/svg">
  <defs>
    <linearGradient id="a" x1="500" x2="500" y2="992.58" gradientUnits="userSpaceOnUse">
      <stop stop-color="#2AABEE" offset="0"/>
      <stop stop-color="#229ED9" offset="1"/>
    </linearGradient>
  </defs>
  <g stroke="#000" stroke-linecap="round">
    <g transform="translate(-70.264 -124.064)scale(.86276)" stroke-linejoin="round">
      <circle cx="304.01" cy="629.29" r="70.586" fill="#3b5b82" stroke-width="20"/>
      <circle cx="631.48" cy="629.39" r="70.586" fill="#3b5b82" stroke-width="20"/>
      <path fill="#81a1c1" stroke-width="16.107" d="M289.23 556.87h352.12v144.07H289.23z"/>
      <g transform="translate(-78.397)">
        <path fill="#81a1c1" stroke-width="23.274" d="M405.32 293.32h276.73v200.33H405.32z"/>
        <g fill="#ebcb8b">
          <circle cx="486.31" cy="390" r="39.617" stroke-width="20.766"/>
          <circle cx="601.06" cy="390" r="39.617" stroke-width="20.766"/>
          <path stroke-width="30" d="M543.53 242.03h1.033v38.034h-1.033z"/>
        </g>
        <circle cx="544.05" cy="193.8" r="39.617" fill="#bf616a" stroke-width="20.766"/>
      </g>
      <path fill="#3b5b82" stroke-width="25" d="M417.13 494.27h96.307v57.194H417.13z"/>
    </g>
    <path d="m537.305 418.101 45.454-186.805M131.16 418.101 85.707 231.296" fill="none" stroke-width="17.255"/>
  </g>
  <g transform="translate(6.47 160.22)scale(.14367)" fill-rule="evenodd">
    <circle cx="500" cy="500" r="500" fill="url(#a)" stroke="#000" stroke-width="90.075"/>
    <path d="M226.33 494.72c145.76-63.505 242.96-105.37 291.59-125.6 138.86-57.755 167.71-67.787 186.51-68.119 4.136-.073 13.384.952 19.375 5.813 5.058 4.105 6.45 9.65 7.116 13.541s1.495 12.756.836 19.683c-7.524 79.062-40.084 270.92-56.648 359.47-7.009 37.47-20.81 50.032-34.17 51.262-29.036 2.672-51.084-19.189-79.207-37.624-44.006-28.847-68.867-46.804-111.58-74.953-49.366-32.53-17.364-50.41 10.77-79.63 7.362-7.648 135.3-124.01 137.77-134.57.309-1.321.596-6.242-2.327-8.84s-7.239-1.71-10.352-1.004q-6.622 1.503-210.9 139.4-29.933 20.554-54.223 20.03c-17.853-.387-52.194-10.095-77.723-18.394-31.313-10.178-56.2-15.56-54.032-32.846q1.693-13.506 37.197-27.624z" fill="#fff"/>
  </g>
  <g transform="matrix(-.74817 .43196 .43137 .74715 1115.2 -237.22)" stroke="#000" stroke-linecap="round" stroke-linejoin="round">
    <ellipse cx="815.36" cy="76.121" rx="19.803" ry="16.851" fill="#bf616a" stroke-width="10.395"/>
    <path transform="matrix(.56466 .82532 -.56466 .82532 0 0)" stroke-width="11.139" d="M895.15-548.61h35.7v35.7h-35.7z"/>
    <path fill="#ebcb8b" stroke-width="14.946" d="M797.8 78.228h35.055v237.51H797.8z"/>
  </g>
</svg>
